<svg width="10" height="11" viewBox="0 0 10 11" fill="none" xmlns="http://www.w3.org/2000/svg">
<path d="M4.40019 1.17399C4.83036 1.59283 5.16542 2.09929 5.38264 2.65901C5.59987 3.21873 5.6942 3.81862 5.65919 4.418C5.65699 4.6016 5.72063 4.77991 5.83859 4.92062C5.95655 5.06133 6.12102 5.15512 6.30219 5.18499C6.34214 5.19635 6.3837 5.20108 6.42519 5.19899C6.6266 5.20033 6.82034 5.12187 6.96407 4.98077C7.10779 4.83966 7.18981 4.6474 7.19218 4.446V4.33599C7.19218 4.28099 7.19219 4.15799 7.20619 4.02099C7.20574 3.99381 7.21338 3.96711 7.22815 3.94428C7.24292 3.92146 7.26415 3.90354 7.28914 3.89282C7.31412 3.8821 7.34173 3.87905 7.36845 3.88407C7.39517 3.88908 7.4198 3.90194 7.43919 3.92099C8.16426 4.69892 8.57415 5.71867 8.58919 6.78199C8.57364 7.25502 8.46392 7.72019 8.26646 8.15031C8.069 8.58043 7.78777 8.96686 7.43919 9.28699C6.73372 9.98238 5.78764 10.3795 4.7972 10.396C3.8081 10.3732 2.86424 9.97698 2.15518 9.28699C1.80661 8.96686 1.52537 8.58043 1.32791 8.15031C1.13045 7.72019 1.02074 7.25502 1.00519 6.78199C1.1098 5.53418 1.68759 4.3736 2.62019 3.53799C3.30569 2.88387 3.7912 2.04843 4.02019 1.12899C4.02284 1.1049 4.03212 1.08202 4.047 1.06289C4.06188 1.04376 4.08177 1.02913 4.10446 1.02063C4.12716 1.01214 4.15177 1.0101 4.17555 1.01476C4.19934 1.01941 4.22136 1.03057 4.23918 1.04699L4.40019 1.17399ZM3.56519 0.0249937C3.51906 0.0237914 3.47341 0.0344742 3.4326 0.0560148C3.3918 0.0775555 3.35721 0.109231 3.33218 0.147995C3.27718 0.247995 3.35918 0.447992 3.45518 0.708992C3.64718 1.29799 3.05519 2.24199 2.22319 3.18699C1.19802 4.12291 0.570939 5.41645 0.471191 6.80099C0.516213 7.92174 0.993097 8.98161 1.80199 9.75866C2.61088 10.5357 3.68903 10.9697 4.81068 10.9697C5.93234 10.9697 7.01051 10.5357 7.8194 9.75866C8.62829 8.98161 9.10517 7.92174 9.15019 6.80099C9.14062 6.09916 8.97903 5.40774 8.67657 4.77435C8.37412 4.14095 7.93799 3.58064 7.39819 3.13199L7.26118 3.022C7.20036 2.96932 7.12265 2.94022 7.04219 2.93999C6.979 2.9397 6.91708 2.95766 6.86386 2.99173C6.81064 3.02579 6.76839 3.07449 6.74219 3.13199C6.69212 3.53614 6.66475 3.94278 6.66019 4.34999V4.44999C6.66059 4.47886 6.65521 4.50753 6.64435 4.53428C6.63349 4.56103 6.61736 4.58533 6.59694 4.60575C6.57652 4.62617 6.55222 4.64228 6.52547 4.65314C6.49871 4.66401 6.47006 4.6694 6.44119 4.66899H6.40019C6.34592 4.6589 6.29693 4.63001 6.26183 4.58741C6.22672 4.5448 6.20773 4.4912 6.20819 4.43599C6.24642 3.75917 6.1378 3.0821 5.88976 2.45121C5.64171 1.82032 5.26014 1.25055 4.77119 0.780994C4.45357 0.417891 4.03629 0.156055 3.57118 0.0279921L3.56519 0.0249937Z" fill="black"/>
</svg>
