<svg width="12" height="12" viewBox="0 0 12 12" fill="none" xmlns="http://www.w3.org/2000/svg">
<path d="M6.479 11.043C7.57091 11.043 8.63829 10.7192 9.5462 10.1126C10.4541 9.50598 11.1617 8.64378 11.5796 7.635C11.9975 6.62623 12.1069 5.51619 11.894 4.44525C11.681 3.37431 11.1553 2.39056 10.3833 1.6184C9.61126 0.846231 8.62761 0.320327 7.5567 0.107185C6.4858 -0.105956 5.37574 0.0032351 4.3669 0.420953C3.35805 0.838671 2.49572 1.54616 1.88894 2.45395C1.28216 3.36174 0.958195 4.42907 0.957997 5.52098C0.959321 6.98493 1.54139 8.38855 2.57646 9.42381C3.61154 10.4591 5.01505 11.0414 6.479 11.043ZM6.479 0.630979C7.44615 0.630979 8.39158 0.917773 9.19574 1.45509C9.99989 1.99241 10.6267 2.75613 10.9968 3.64966C11.3669 4.54319 11.4637 5.5264 11.275 6.47497C11.0864 7.42354 10.6206 8.29485 9.93675 8.97873C9.25287 9.66261 8.38156 10.1283 7.43299 10.317C6.48442 10.5057 5.50121 10.4089 4.60768 10.0387C3.71414 9.66864 2.95043 9.04187 2.41311 8.23772C1.87579 7.43356 1.589 6.48813 1.589 5.52098C1.59164 4.22488 2.10768 2.98263 3.02416 2.06615C3.94065 1.14966 5.1829 0.633621 6.479 0.630979Z" fill="black"/>
<path d="M4.78495 7.52998C4.82635 7.5301 4.86736 7.52204 4.90563 7.50625C4.9439 7.49046 4.97868 7.46726 5.00795 7.43798L6.70194 5.74498C6.73118 5.71567 6.75435 5.6809 6.77014 5.64263C6.78592 5.60437 6.79401 5.56337 6.79394 5.52198V1.93898C6.78941 1.85837 6.75419 1.78256 6.69552 1.7271C6.63685 1.67165 6.55918 1.64075 6.47844 1.64075C6.39771 1.64075 6.32004 1.67165 6.26137 1.7271C6.2027 1.78256 6.16749 1.85837 6.16295 1.93898V5.39098L4.56295 6.99098C4.51893 7.03517 4.48898 7.09139 4.47686 7.15257C4.46474 7.21375 4.47099 7.27715 4.49484 7.33479C4.51868 7.39242 4.55905 7.44171 4.61085 7.47644C4.66265 7.51117 4.72358 7.5298 4.78595 7.52998H4.78495Z" fill="black"/>
</svg>
