<svg width="45" height="45" viewBox="0 0 45 45" fill="none" xmlns="http://www.w3.org/2000/svg">
<g opacity="0.45">
<path fill-rule="evenodd" clip-rule="evenodd" d="M15.7456 39.8698H2.2377C1.00371 39.8698 0 38.8661 0 37.633V9.07729C0 7.84331 1.00371 6.8396 2.2377 6.8396H14.0361C14.3271 6.8396 14.5635 7.07603 14.5635 7.36694C14.5635 7.65874 14.3271 7.89429 14.0361 7.89429H2.2377C1.58555 7.89429 1.05469 8.42515 1.05469 9.07729V37.633C1.05469 38.2842 1.58555 38.8151 2.2377 38.8151H15.7456C16.3978 38.8151 16.9286 38.2842 16.9286 37.6321C16.9286 37.3412 17.1642 37.1047 17.456 37.1047C17.7469 37.1047 17.9833 37.3412 17.9833 37.6321C17.9833 38.8661 16.9796 39.8698 15.7456 39.8698Z" fill="black"/>
<path fill-rule="evenodd" clip-rule="evenodd" d="M29.2544 38.1594H15.7456C14.5125 38.1594 13.5088 37.1566 13.5088 35.9226V7.36694C13.5088 6.13384 14.5125 5.13013 15.7456 5.13013H29.2544C30.4875 5.13013 31.4912 6.13384 31.4912 7.36694V35.9226C31.4912 37.1566 30.4875 38.1594 29.2544 38.1594ZM15.7456 6.18481C15.0935 6.18481 14.5635 6.71567 14.5635 7.36694V35.9226C14.5635 36.5748 15.0935 37.1056 15.7456 37.1056H29.2544C29.9057 37.1056 30.4365 36.5748 30.4365 35.9226V7.36694C30.4365 6.71567 29.9057 6.18481 29.2544 6.18481H15.7456Z" fill="black"/>
<path fill-rule="evenodd" clip-rule="evenodd" d="M42.7622 39.8698H29.2543C28.0203 39.8698 27.0166 38.8661 27.0166 37.6321C27.0166 37.3412 27.253 37.1056 27.5439 37.1056C27.8357 37.1056 28.0713 37.3412 28.0713 37.6321C28.0713 38.2842 28.6021 38.8151 29.2543 38.8151H42.7622C43.4144 38.8151 43.9452 38.2842 43.9452 37.6321V9.07729C43.9452 8.42515 43.4144 7.89429 42.7622 7.89429H30.9638C30.6728 7.89429 30.4364 7.65874 30.4364 7.36694C30.4364 7.07603 30.6728 6.8396 30.9638 6.8396H42.7622C43.9962 6.8396 44.9999 7.84331 44.9999 9.07729V37.633C44.9999 38.8661 43.9962 39.8698 42.7622 39.8698ZM7.28164 19.8676C5.78838 19.8676 4.57373 18.653 4.57373 17.1597C4.57373 16.8688 4.81016 16.6324 5.10107 16.6324C5.39287 16.6324 5.62842 16.8688 5.62842 17.1597C5.62842 18.0711 6.37021 18.8129 7.28164 18.8129C8.19307 18.8129 8.93486 18.0711 8.93486 17.1597C8.93486 16.2483 8.19307 15.5074 7.28164 15.5074C5.78838 15.5074 4.57373 14.2927 4.57373 12.7995C4.57373 11.3071 5.78838 10.0924 7.28164 10.0924C8.7749 10.0924 9.98955 11.3071 9.98955 12.7995C9.98955 13.0913 9.75313 13.3268 9.46221 13.3268C9.17041 13.3268 8.93486 13.0913 8.93486 12.7995C8.93486 11.888 8.19307 11.1471 7.28164 11.1471C6.37021 11.1471 5.62842 11.888 5.62842 12.7995C5.62842 13.7109 6.37021 14.4527 7.28164 14.4527C8.7749 14.4527 9.98955 15.6673 9.98955 17.1597C9.98955 18.653 8.7749 19.8676 7.28164 19.8676ZM11.0012 22.3593H3.56299C3.27119 22.3593 3.03564 22.1229 3.03564 21.832C3.03564 21.5402 3.27119 21.3046 3.56299 21.3046H11.0012C11.2921 21.3046 11.5285 21.5402 11.5285 21.832C11.5285 22.1229 11.2921 22.3593 11.0012 22.3593ZM11.0012 27.2329H3.56299C3.27119 27.2329 3.03564 26.9964 3.03564 26.7055C3.03564 26.4137 3.27119 26.1782 3.56299 26.1782H11.0012C11.2921 26.1782 11.5285 26.4137 11.5285 26.7055C11.5285 26.9964 11.2921 27.2329 11.0012 27.2329ZM11.0012 32.1055H3.56299C3.27119 32.1055 3.03564 31.87 3.03564 31.5782C3.03564 31.2873 3.27119 31.0508 3.56299 31.0508H11.0012C11.2921 31.0508 11.5285 31.2873 11.5285 31.5782C11.5285 31.87 11.2921 32.1055 11.0012 32.1055ZM11.3431 36.6178H3.22021C2.9293 36.6178 2.69287 36.3814 2.69287 36.0905V34.0813C2.69287 33.7895 2.9293 33.554 3.22021 33.554H11.3431C11.634 33.554 11.8704 33.7895 11.8704 34.0813V36.0905C11.8704 36.3814 11.634 36.6178 11.3431 36.6178ZM3.74844 35.5631H10.8157V34.6086H3.74844V35.5631Z" fill="black"/>
<path fill-rule="evenodd" clip-rule="evenodd" d="M37.7182 19.8676C36.2249 19.8676 35.0103 18.653 35.0103 17.1597C35.0103 16.8688 35.2467 16.6323 35.5376 16.6323C35.8285 16.6323 36.0649 16.8688 36.0649 17.1597C36.0649 18.0711 36.8067 18.8129 37.7182 18.8129C38.6296 18.8129 39.3705 18.0711 39.3705 17.1597C39.3705 16.2483 38.6296 15.5073 37.7182 15.5073C36.2249 15.5073 35.0103 14.2927 35.0103 12.7994C35.0103 11.3071 36.2249 10.0924 37.7182 10.0924C39.2105 10.0924 40.4252 11.3071 40.4252 12.7994C40.4252 13.0912 40.1896 13.3268 39.8979 13.3268C39.6069 13.3268 39.3705 13.0912 39.3705 12.7994C39.3705 11.888 38.6296 11.1471 37.7182 11.1471C36.8067 11.1471 36.0649 11.888 36.0649 12.7994C36.0649 13.7109 36.8067 14.4527 37.7182 14.4527C39.2105 14.4527 40.4252 15.6673 40.4252 17.1597C40.4252 18.653 39.2105 19.8676 37.7182 19.8676ZM41.4368 22.3646H33.9986C33.7077 22.3646 33.4713 22.1281 33.4713 21.8372C33.4713 21.5463 33.7077 21.3099 33.9986 21.3099H41.4368C41.7286 21.3099 41.9642 21.5463 41.9642 21.8372C41.9642 22.1281 41.7286 22.3646 41.4368 22.3646ZM41.4368 27.2381H33.9986C33.7077 27.2381 33.4713 27.0017 33.4713 26.7108C33.4713 26.419 33.7077 26.1834 33.9986 26.1834H41.4368C41.7286 26.1834 41.9642 26.419 41.9642 26.7108C41.9642 27.0017 41.7286 27.2381 41.4368 27.2381ZM41.4368 32.1108H33.9986C33.7077 32.1108 33.4713 31.8752 33.4713 31.5834C33.4713 31.2925 33.7077 31.0561 33.9986 31.0561H41.4368C41.7286 31.0561 41.9642 31.2925 41.9642 31.5834C41.9642 31.8752 41.7286 32.1108 41.4368 32.1108ZM41.7787 36.6178H33.6567C33.3658 36.6178 33.1294 36.3814 33.1294 36.0905V34.0813C33.1294 33.7895 33.3658 33.5539 33.6567 33.5539H41.7787C42.0705 33.5539 42.3061 33.7895 42.3061 34.0813V36.0905C42.3061 36.3814 42.0705 36.6178 41.7787 36.6178ZM34.1841 35.5631H41.2514V34.6086H34.1841V35.5631ZM22.4999 17.6835C21.0066 17.6835 19.792 16.4698 19.792 14.9765C19.792 14.6856 20.0284 14.4491 20.3193 14.4491C20.6111 14.4491 20.8467 14.6856 20.8467 14.9765C20.8467 15.8879 21.5885 16.6288 22.4999 16.6288C23.4113 16.6288 24.1531 15.8879 24.1531 14.9765C24.1531 14.0651 23.4113 13.3233 22.4999 13.3233C21.0066 13.3233 19.792 12.1086 19.792 10.6162C19.792 9.12297 21.0066 7.90833 22.4999 7.90833C23.9932 7.90833 25.2078 9.12297 25.2078 10.6162C25.2078 10.9072 24.9714 11.1436 24.6805 11.1436C24.3887 11.1436 24.1531 10.9072 24.1531 10.6162C24.1531 9.70481 23.4113 8.96301 22.4999 8.96301C21.5885 8.96301 20.8467 9.70481 20.8467 10.6162C20.8467 11.5277 21.5885 12.2686 22.4999 12.2686C23.9932 12.2686 25.2078 13.4832 25.2078 14.9765C25.2078 16.4698 23.9932 17.6835 22.4999 17.6835ZM26.2186 20.6542H18.7813C18.4895 20.6542 18.2539 20.4187 18.2539 20.1269C18.2539 20.0577 18.2676 19.9891 18.2941 19.9252C18.3206 19.8613 18.3594 19.8032 18.4084 19.7543C18.4574 19.7054 18.5155 19.6666 18.5795 19.6402C18.6435 19.6138 18.712 19.6003 18.7813 19.6004H26.2186C26.5104 19.6004 26.7459 19.836 26.7459 20.1269C26.7459 20.4187 26.5104 20.6542 26.2186 20.6542ZM26.2186 25.5278H18.7813C18.4895 25.5278 18.2539 25.2922 18.2539 25.0004C18.2539 24.7095 18.4895 24.4731 18.7813 24.4731H26.2186C26.5104 24.4731 26.7459 24.7095 26.7459 25.0004C26.7459 25.2922 26.5104 25.5278 26.2186 25.5278ZM26.2186 30.4013H18.7813C18.4895 30.4013 18.2539 30.1649 18.2539 29.8739C18.2539 29.583 18.4895 29.3466 18.7813 29.3466H26.2186C26.5104 29.3466 26.7459 29.583 26.7459 29.8739C26.7459 30.1649 26.5104 30.4013 26.2186 30.4013ZM26.5605 35.3812H18.4385C18.1476 35.3812 17.9111 35.1448 17.9111 34.8538V32.8447C17.9111 32.5537 18.1476 32.3173 18.4385 32.3173H26.5605C26.8522 32.3173 27.0878 32.5537 27.0878 32.8447V34.8538C27.0878 35.1456 26.8522 35.3812 26.5605 35.3812ZM18.9658 34.3265H26.0331V33.372H18.9658V34.3265Z" fill="black"/>
</g>
</svg>
