<svg width="22" height="26" viewBox="0 0 22 26" fill="none" xmlns="http://www.w3.org/2000/svg">
<path d="M8.89192 0C8.78523 0.000442326 8.67966 0.0227049 8.58124 0.0655164C8.48283 0.108328 8.3935 0.17085 8.31835 0.249513C8.24321 0.328176 8.18371 0.421439 8.14328 0.523978C8.10284 0.626516 8.08225 0.736322 8.08267 0.847125C8.08267 2.26294 7.60899 3.09319 6.99718 4.15462C6.66243 4.73512 6.12618 5.69616 5.89705 6.43359C5.65655 5.93072 5.51843 5.55862 5.30474 4.75284C5.26567 4.60182 5.18696 4.46505 5.07738 4.35779C4.96781 4.25053 4.83169 4.177 4.68421 4.14541C4.53674 4.11381 4.38371 4.1254 4.2422 4.17888C4.1007 4.23235 3.97629 4.32561 3.88286 4.44825C0.834364 8.39109 -0.0610106 11.3476 0.00317693 14.3378C0.131552 20.3614 4.74168 25.2889 10.5657 25.2889C16.3897 25.2889 21.1265 20.3681 21.1265 14.3201C21.1265 12.7668 20.7804 10.7494 20.0646 8.85262C19.3488 6.95587 18.2698 5.15447 16.6164 4.23647C16.5073 4.17643 16.3865 4.14299 16.2631 4.13868C16.1397 4.13437 16.0171 4.15931 15.9043 4.21161C15.7916 4.26391 15.6919 4.34218 15.6127 4.4405C15.5335 4.53881 15.4769 4.65457 15.4472 4.779C15.2879 5.45653 15.2294 5.66494 15.0393 6.23869C14.8061 5.14012 14.4324 4.08712 13.8222 3.07125C12.7992 1.36519 11.1125 0 8.89192 0ZM9.64918 1.76681C10.8265 2.00897 11.7267 2.76834 12.4434 3.96225C13.2656 5.3325 13.684 7.15922 13.684 8.62059C13.6842 8.78076 13.7283 8.93757 13.8111 9.07269C13.894 9.2078 14.0121 9.31565 14.1518 9.38361C14.2915 9.45157 14.4469 9.47684 14.5999 9.45648C14.7529 9.43611 14.8971 9.37094 15.0157 9.26859C15.8656 8.53959 16.4059 7.38366 16.6992 6.37959C17.4638 7.10437 18.0399 8.12025 18.5477 9.46772C19.1822 11.151 19.5015 13.0385 19.5015 14.3193C19.5015 19.4552 15.5114 23.6005 10.5657 23.6005C5.61999 23.6005 1.73136 19.4586 1.62168 14.3016C1.57211 11.9737 2.1238 9.80015 4.24361 6.74747C4.60111 7.58616 5.09674 8.39953 5.72399 9.0509C6.21393 9.56137 7.05649 9.23906 7.11093 8.52019C7.22711 7.00312 7.77311 6.09609 8.39305 5.02031C8.8448 4.23647 9.44443 3.21722 9.64918 1.76681ZM7.84949 11.1552C7.68939 11.1553 7.53086 11.1881 7.38297 11.2518C7.23507 11.3154 7.1007 11.4087 6.98753 11.5263C6.87436 11.6439 6.78461 11.7835 6.72339 11.9372C6.66217 12.0908 6.63068 12.2554 6.63074 12.4217C6.63079 12.5879 6.66238 12.7526 6.7237 12.9061C6.78501 13.0597 6.87486 13.1993 6.98811 13.3168C7.10136 13.4343 7.23578 13.5275 7.38372 13.5911C7.53165 13.6547 7.6902 13.6874 7.8503 13.6873C8.17364 13.6872 8.4837 13.5537 8.71226 13.3162C8.94081 13.0787 9.06916 12.7566 9.06905 12.4208C9.06894 12.0851 8.94039 11.7631 8.71168 11.5257C8.48297 11.2884 8.17283 11.1551 7.84949 11.1552ZM13.615 11.1637C13.4076 11.1852 13.2147 11.2841 13.0722 11.4421L6.83549 18.8232C6.76432 18.9064 6.70969 19.0033 6.67475 19.1085C6.63981 19.2137 6.62524 19.325 6.63188 19.436C6.63853 19.5471 6.66626 19.6557 6.71347 19.7555C6.76068 19.8554 6.82645 19.9446 6.90699 20.018C7.06931 20.1648 7.28114 20.2388 7.49594 20.2236C7.71074 20.2084 7.91096 20.1053 8.05261 19.937L14.2959 12.5558C14.4368 12.3874 14.5077 12.1678 14.4931 11.9451C14.4785 11.7225 14.3795 11.5149 14.2179 11.3678C14.139 11.2883 14.0437 11.2286 13.9392 11.1932C13.8347 11.1578 13.7238 11.1477 13.615 11.1637ZM13.277 17.6943C13.1169 17.6943 12.9584 17.7271 12.8105 17.7908C12.6626 17.8545 12.5282 17.9478 12.415 18.0654C12.3019 18.183 12.2121 18.3226 12.1509 18.4762C12.0897 18.6298 12.0582 18.7945 12.0582 18.9607C12.0583 19.127 12.0899 19.2916 12.1512 19.4452C12.2125 19.5988 12.3024 19.7383 12.4156 19.8559C12.5289 19.9734 12.6633 20.0666 12.8112 20.1302C12.9592 20.1937 13.1177 20.2264 13.2778 20.2264C13.6011 20.2263 13.9112 20.0928 14.1398 19.8553C14.3683 19.6177 14.4967 19.2957 14.4965 18.9599C14.4964 18.6241 14.3679 18.3021 14.1392 18.0648C13.9105 17.8274 13.6003 17.6942 13.277 17.6943Z" fill="#3E3E3E"/>
</svg>
