<svg width="20" height="20" viewBox="0 0 20 20" fill="none" xmlns="http://www.w3.org/2000/svg">
<g clip-path="url(#clip0_198_1116)">
<path d="M19.6667 12.3333V19.6667H11.3335V12.3333C11.3332 10.2532 12.9271 8.52001 15 8.34666C15.11 8.33658 15.22 8.33337 15.3334 8.33337H15.6668C17.8758 8.33337 19.6667 10.1241 19.6667 12.3333Z" fill="#FFB4B5"/>
<path d="M18.6667 12.3333V19.6667H11.3335V12.3333C11.3332 10.2532 12.9271 8.52004 15 8.34668C17.0729 8.52 18.667 10.2532 18.6667 12.3333Z" fill="#EED5D6"/>
<path d="M15.5 14.9999C14.824 14.9999 14.1508 14.9102 13.4984 14.7334C13.3379 14.6843 13.196 14.5881 13.0909 14.4574C12.9858 14.3266 12.9225 14.1672 12.9091 14L12.6713 11.6813C12.6555 11.5374 12.6752 11.3917 12.7289 11.2572C12.7826 11.1227 12.8685 11.0035 12.9791 10.91C14.4404 9.69553 16.56 9.69553 18.0214 10.91C18.1318 11.0034 18.2177 11.1226 18.2713 11.257C18.3248 11.3914 18.3446 11.5369 18.3287 11.6807L18.0911 14C18.0777 14.1671 18.0144 14.3264 17.9095 14.4572C17.8045 14.5879 17.6627 14.6841 17.5024 14.7334C16.8496 14.9102 16.1763 14.9998 15.5 14.9999Z" fill="#FFB4B5"/>
<path d="M18.3334 11.1267C18.3334 11.1404 18.3301 11.1537 18.3301 11.1647L18.0368 13.7943C18.0302 13.8546 18.0053 13.9114 17.9653 13.957C17.9253 14.0025 17.8723 14.0347 17.8134 14.049C17.7501 14.068 17.6834 14.0823 17.6201 14.0977H17.6167C17.1829 14.1953 16.743 14.2632 16.3 14.3009C16.1234 14.3144 15.9468 14.3254 15.7668 14.3307C15.6767 14.3333 15.59 14.3333 15.5 14.3333C15.41 14.3333 15.3201 14.3333 15.2301 14.3307C15.1268 14.328 15.0234 14.3223 14.92 14.3144C14.7601 14.3037 14.6001 14.29 14.4434 14.271C14.3434 14.263 14.2467 14.2494 14.1467 14.2359C13.8905 14.2004 13.6358 14.1542 13.3833 14.0977H13.3801C13.3168 14.0814 13.2501 14.068 13.1868 14.049C13.1279 14.0347 13.0748 14.0026 13.0349 13.957C12.9949 13.9114 12.9699 13.8546 12.9634 13.7943L12.6701 11.1647C12.6635 11.1147 12.6706 11.064 12.6905 11.0177C12.7105 10.9715 12.7425 10.9315 12.7834 10.9021C13.1716 10.6096 13.6052 10.3827 14.0668 10.2304C14.9976 9.92321 16.0026 9.92321 16.9334 10.2304C17.395 10.3827 17.8285 10.6096 18.2167 10.9021C18.2526 10.9276 18.2818 10.9613 18.3021 11.0003C18.3224 11.0394 18.3332 11.0827 18.3334 11.1267Z" fill="#EBD4D5"/>
<path d="M17.6167 14.0434C17.1854 14.1629 16.745 14.2465 16.3 14.2933C16.1233 14.31 15.9468 14.3234 15.7667 14.33C15.6767 14.3333 15.59 14.3333 15.5 14.3333C15.41 14.3333 15.3201 14.3333 15.2301 14.33C15.1265 14.3267 15.0231 14.32 14.92 14.31C14.7601 14.2967 14.6001 14.2801 14.4433 14.2567C14.4067 14.2534 14.3734 14.2467 14.3367 14.2433L14.1467 14.2134C13.8896 14.1694 13.6348 14.1127 13.3833 14.0434C13.6009 13.0485 14.4818 12.3395 15.5 12.3395C16.5184 12.3395 17.3992 13.0485 17.6167 14.0434V14.0434Z" fill="#EBD4D5"/>
<path d="M15.9805 8.34926C15.8766 8.34106 15.7726 8.3334 15.6667 8.3334H15.3333C15.2199 8.3334 15.1099 8.33661 14.9999 8.34669C12.927 8.52001 11.3331 10.2532 11.3334 12.3333V19.6667H12.3332V12.3333C12.3336 10.2611 13.9164 8.53208 15.9805 8.34926ZM7.20295 0.666638C5.80173 0.666839 4.41786 0.97656 3.15023 1.57367L3.02496 1.63327L2.7334 1.03332L2.8666 0.970309C4.22295 0.331453 5.70368 0.00012179 7.20295 0V0.666638Z" fill="white"/>
<path d="M4.85098 5.78206C4.68786 5.86518 4.62223 6.06432 4.70418 6.22803C4.74348 6.3067 4.81229 6.36665 4.8956 6.39481C4.97891 6.42296 5.06998 6.41704 5.14895 6.37834C5.53468 6.18436 5.94984 6.05552 6.37761 5.99702C6.46419 5.98408 6.54219 5.9376 6.59478 5.86762C6.64737 5.79765 6.67032 5.70979 6.65867 5.62303C6.64699 5.53629 6.60168 5.45761 6.53252 5.40397C6.46335 5.35033 6.37587 5.32603 6.28894 5.33632C5.78833 5.40467 5.30245 5.55526 4.85094 5.78202L4.85098 5.78206ZM2.51728 16.9867C2.62427 16.9865 2.72482 16.9351 2.78736 16.8483C2.84989 16.7614 2.86704 16.6499 2.83329 16.5483C2.72067 16.2058 2.6644 15.8473 2.66669 15.4867V14.6367C2.66669 14.4527 2.51747 14.3034 2.33326 14.3034C2.24488 14.3035 2.16014 14.3386 2.09765 14.4011C2.03517 14.4636 2.00006 14.5483 2.00005 14.6367V15.5067C1.99918 15.932 2.06665 16.3546 2.1999 16.7584C2.22205 16.825 2.26465 16.8829 2.32163 16.9239C2.37862 16.9649 2.44709 16.9869 2.51728 16.9867ZM3.67634 7.49572C3.83927 7.28641 4.02127 7.09266 4.22001 6.91697C4.28193 6.85748 4.3185 6.77638 4.32208 6.69058C4.32566 6.60478 4.29598 6.52091 4.23922 6.45647C4.1825 6.39198 4.10307 6.35189 4.0175 6.34456C3.93194 6.33722 3.84684 6.36321 3.77997 6.41709C3.55047 6.6193 3.34035 6.84249 3.15235 7.08377C2.75618 7.58508 2.45487 8.1545 2.26322 8.76404C2.08752 9.30965 1.99871 9.8795 2.00001 10.4527V13.3034C2.00001 13.4874 2.14923 13.6366 2.33326 13.6366C2.37703 13.6367 2.42039 13.628 2.46084 13.6113C2.50129 13.5946 2.53805 13.57 2.56901 13.5391C2.59997 13.5081 2.62454 13.4714 2.6413 13.4309C2.65806 13.3905 2.66669 13.3471 2.66669 13.3034V10.4527C2.66592 9.94821 2.74464 9.44671 2.89997 8.96669C3.06705 8.43321 3.33016 7.93472 3.67634 7.49576V7.49572ZM11.6666 8.68333C11.7237 8.68379 11.7799 8.66954 11.8299 8.64197C11.8799 8.61439 11.922 8.57441 11.9521 8.52587C11.9822 8.47737 11.9994 8.42193 12.0019 8.36488C12.0045 8.30782 11.9923 8.25107 11.9665 8.20009C11.5971 7.44438 11.0503 6.78928 10.3728 6.29069C9.69536 5.7921 8.9073 5.46484 8.07593 5.33682C8.01801 5.32843 7.9589 5.33542 7.90455 5.35711C7.85019 5.3788 7.80251 5.41442 7.76628 5.46038C7.73007 5.50638 7.70661 5.5611 7.69826 5.61904C7.6899 5.67698 7.69696 5.7361 7.7187 5.79046C7.74042 5.84481 7.77607 5.89248 7.82206 5.92869C7.86805 5.96489 7.92276 5.98835 7.98069 5.9967C8.70509 6.11006 9.39134 6.39692 9.98091 6.83283C10.5705 7.26873 11.0459 7.84074 11.3666 8.50009C11.3946 8.55554 11.4375 8.60206 11.4905 8.63444C11.5435 8.66681 11.6045 8.68375 11.6666 8.68333ZM9.66662 10.4238C9.61916 9.07626 8.51655 8.00658 7.16831 8.00006C7.02374 7.99913 6.87941 8.01195 6.73726 8.03834C6.15434 8.13996 5.62675 8.44607 5.24922 8.90169C4.90919 9.29931 4.70838 9.79713 4.67735 10.3194C4.66907 10.3792 4.66555 10.4396 4.66664 10.5V12.07C4.66664 12.6936 4.66664 13.4474 4.67 14.2433C4.66877 14.8271 4.79765 15.4039 5.04726 15.9316C5.29687 16.4594 5.66094 16.9249 6.11301 17.2943C6.9783 18.0036 7.88102 18.6661 8.81729 19.2787L9.17194 18.7142C8.25926 18.1164 7.3791 17.4703 6.53523 16.7787C6.15725 16.469 5.85332 16.0786 5.64569 15.6363C5.43806 15.1939 5.33199 14.7107 5.33524 14.2221C5.33328 13.4457 5.33328 12.693 5.33328 12.07V10.5C5.33238 10.4628 5.33449 10.4256 5.33953 10.3886C5.35977 9.99888 5.50778 9.62663 5.7607 9.32939C6.03899 8.99339 6.42828 8.76802 6.85824 8.694C6.96047 8.67492 7.06432 8.66578 7.16831 8.66669C8.15933 8.67126 8.96881 9.45954 8.99995 10.45C8.99889 10.4668 8.99995 10.4836 9.00299 10.5V12.2C9.00163 12.7563 9.12522 13.3058 9.36463 13.808C9.38317 13.8476 9.40935 13.8833 9.44167 13.9128C9.47398 13.9424 9.51181 13.9652 9.55297 13.9802C9.59414 13.9951 9.63784 14.0018 9.68159 13.9998C9.72533 13.9978 9.76826 13.9872 9.80791 13.9687C9.84758 13.9501 9.8832 13.9239 9.91275 13.8916C9.94229 13.8593 9.96518 13.8215 9.9801 13.7803C9.99502 13.7392 10.0017 13.6954 9.9997 13.6517C9.99773 13.608 9.98715 13.565 9.96858 13.5254C9.76822 13.1042 9.66567 12.6431 9.66858 12.1767V10.5C9.6692 10.4745 9.66858 10.449 9.66662 10.4237V10.4238Z" fill="#653CC2"/>
<path d="M7.66667 12.7937V12.8334C7.66967 13.411 7.8002 13.981 8.04892 14.5024C8.29765 15.0238 8.65844 15.4838 9.10553 15.8497L9.45787 16.1373C9.52665 16.1909 9.6137 16.2155 9.70036 16.2057C9.78701 16.1958 9.86637 16.1525 9.92142 16.0848C9.97643 16.0172 10.0027 15.9307 9.99474 15.8439C9.98672 15.757 9.94502 15.6768 9.87857 15.6204L9.52455 15.3333C9.15406 15.0295 8.8552 14.6476 8.64929 14.2149C8.44337 13.7822 8.33548 13.3095 8.3333 12.8303V12.792C8.33666 12.095 8.33666 11.4919 8.33666 11.076V10.5487C8.33606 10.3807 8.30138 10.2146 8.23474 10.0604C8.16809 9.90621 8.07086 9.76714 7.94893 9.65161C7.8362 9.54305 7.70239 9.45879 7.55578 9.40404C7.40917 9.3493 7.25288 9.32523 7.09659 9.33333C6.48104 9.3693 6.00011 9.87895 5.99995 10.4957V11.4289C5.99995 11.8937 5.99995 12.4957 6.00327 13.1533V13.591C6.00282 14.1736 6.13256 14.749 6.38303 15.2751C6.63349 15.8012 6.99835 16.2647 7.45092 16.6317C8.09584 17.156 8.68061 17.6316 9.08998 17.9606C9.10037 17.9713 9.11146 17.9812 9.12326 17.9904C9.22029 18.0672 9.30619 18.1373 9.38068 18.1973L9.45834 18.2603C9.52726 18.3135 9.61429 18.3377 9.7008 18.3276C9.7873 18.3175 9.86642 18.2739 9.92122 18.2062C9.97601 18.1385 10.0021 18.0521 9.99399 17.9653C9.98584 17.8786 9.94408 17.7985 9.87763 17.7422L9.80056 17.68C9.73388 17.6249 9.65533 17.562 9.56927 17.4929C9.56015 17.4836 9.55046 17.4748 9.54025 17.4667C8.98401 17.0168 8.42844 16.5661 7.87354 16.1146C7.49786 15.81 7.19498 15.4254 6.98703 14.9888C6.77908 14.5521 6.6713 14.0746 6.67159 13.591V13.15C6.66659 12.491 6.66659 11.8913 6.66659 11.4277V10.4943C6.66672 10.3629 6.71903 10.2369 6.81202 10.144C6.89891 10.0584 7.0139 10.0072 7.13565 9.99996C7.2008 9.99674 7.26589 10.0072 7.32674 10.0307C7.38758 10.0542 7.44282 10.0902 7.48889 10.1364C7.54522 10.1894 7.59017 10.2533 7.62102 10.3242C7.65187 10.3952 7.66797 10.4716 7.66835 10.549V11.0763C7.66835 11.4903 7.66835 12.093 7.66667 12.7937ZM5.82859 0.0933613C5.78455 0.0988747 5.74208 0.11322 5.70372 0.135538C5.66536 0.157855 5.6319 0.187686 5.60535 0.223244C5.57877 0.258778 5.55964 0.299313 5.5491 0.342418C5.53856 0.385524 5.53683 0.430313 5.54402 0.474102C5.57437 0.651992 5.73886 0.774999 5.91831 0.754101C6.34411 0.696601 6.77325 0.667383 7.20292 0.66664C7.89498 0.666234 8.585 0.741817 9.26057 0.89203C9.28443 0.897255 9.30879 0.899914 9.33322 0.89996C9.41533 0.900017 9.49456 0.869756 9.55572 0.814981C9.61688 0.760207 9.65566 0.684777 9.66463 0.603164C9.67363 0.521599 9.65222 0.439582 9.60449 0.372827C9.55676 0.306073 9.48608 0.259277 9.40599 0.241408C8.6827 0.0804612 7.9439 -0.000493373 7.20292 2.26204e-06C6.74335 0.000783509 6.28417 0.0320334 5.82859 0.0933613ZM4.73957 0.402344C4.66025 0.358764 4.56704 0.347938 4.47985 0.372179C4.39266 0.396421 4.31841 0.453806 4.27297 0.532071C4.25286 0.57132 4.24073 0.614162 4.23726 0.658125C4.23249 0.701485 4.23669 0.745364 4.24961 0.78703C4.27743 0.870298 4.33467 0.94056 4.41058 0.984647C4.56773 1.07133 4.76535 1.01652 4.8557 0.861366L4.88164 0.803358C4.8891 0.781874 4.89398 0.759413 4.89597 0.736679C4.90055 0.716009 4.90224 0.694806 4.90101 0.673671C4.89932 0.651263 4.89616 0.628989 4.89156 0.606992C4.8695 0.521586 4.81496 0.448131 4.73957 0.402344ZM2.66669 1.77335C2.71977 1.77335 2.77211 1.76054 2.81926 1.73597C2.88725 1.70092 2.95562 1.66659 3.02434 1.633L3.14961 1.5741C3.24633 1.52711 3.34492 1.48464 3.44336 1.44074C3.52271 1.40489 3.58524 1.33992 3.61804 1.25926C3.65083 1.1786 3.65138 1.08843 3.61957 1.00738C3.60315 0.96618 3.57858 0.928719 3.54734 0.897245C3.51609 0.86577 3.47881 0.840931 3.43772 0.824217C3.39664 0.807502 3.35261 0.799257 3.30826 0.799976C3.26392 0.800694 3.22017 0.810361 3.17965 0.828397C3.07469 0.874022 2.96895 0.919647 2.86563 0.969998L2.73336 1.03332C2.66006 1.06917 2.58717 1.10586 2.51469 1.14336C2.44808 1.17744 2.39487 1.23296 2.36365 1.30096C2.33243 1.36897 2.32501 1.4455 2.34258 1.51824C2.36016 1.59096 2.40167 1.65565 2.46046 1.70192C2.51924 1.74819 2.59188 1.77335 2.66669 1.77335ZM10.5403 1.30843C10.9853 1.49062 11.4159 1.70596 11.8286 1.95265C11.8788 1.98275 11.936 1.99909 11.9945 2.00003C12.053 2.00097 12.1108 1.98647 12.1619 1.958C12.2131 1.92962 12.2559 1.88824 12.2859 1.83804C12.316 1.78783 12.3323 1.73058 12.3332 1.67207C12.3342 1.61356 12.3197 1.55583 12.2913 1.5047C12.2628 1.45356 12.2214 1.41082 12.1712 1.38078C11.7297 1.11668 11.269 0.886319 10.7928 0.691679C10.7117 0.661267 10.6218 0.663664 10.5424 0.698364C10.463 0.733064 10.4002 0.797337 10.3673 0.877557C10.3345 0.957776 10.3342 1.04763 10.3665 1.12808C10.3987 1.20852 10.4611 1.27323 10.5403 1.30847L10.5403 1.30843ZM0.999973 4.66674C1.04436 4.66676 1.08831 4.65792 1.12923 4.64072C1.17016 4.62353 1.20723 4.59834 1.23829 4.56663C3.41039 2.368 6.59179 1.49781 9.58056 2.28468C9.69713 2.32023 9.82392 2.28941 9.91103 2.20413C9.95383 2.16232 9.98457 2.10974 10 2.05193C10.0155 1.99412 10.015 1.93321 9.99881 1.87562C9.98261 1.81803 9.95121 1.76587 9.9079 1.7246C9.86459 1.68333 9.81097 1.65449 9.75267 1.64109C6.53151 0.791171 3.10184 1.72929 0.761615 4.09999C0.715622 4.14688 0.684509 4.20631 0.672182 4.27083C0.659856 4.33535 0.666865 4.40207 0.69233 4.46261C0.717795 4.52316 0.760581 4.57483 0.815315 4.61114C0.870048 4.64745 0.93429 4.66682 0.999973 4.66674ZM14.547 5.25604C14.5806 5.22797 14.6084 5.19355 14.6287 5.15474C14.649 5.11593 14.6615 5.0735 14.6653 5.02987C14.6693 4.98626 14.6646 4.94231 14.6515 4.90053C14.6385 4.85874 14.6173 4.81994 14.5892 4.78635C13.6087 3.62464 12.3713 2.70707 10.9749 2.10628C10.9686 2.10343 10.963 2.10038 10.9563 2.09777C10.9017 2.07441 10.8483 2.04773 10.7933 2.02499C10.623 1.95507 10.4282 2.03644 10.3583 2.20671C10.3416 2.2472 10.3331 2.29057 10.3332 2.33434C10.3334 2.37812 10.3421 2.42144 10.359 2.46184C10.3758 2.50224 10.4005 2.53892 10.4315 2.56979C10.4626 2.60066 10.4994 2.62511 10.5399 2.64175C11.9098 3.2002 13.1237 4.08281 14.0773 5.21377C14.1054 5.24739 14.1398 5.27516 14.1786 5.29548C14.2173 5.3158 14.2598 5.32828 14.3034 5.3322C14.347 5.33613 14.3909 5.33142 14.4327 5.31835C14.4745 5.30528 14.5133 5.28411 14.547 5.25604Z" fill="#653CC2"/>
<path d="M2.99991 4.66678C3.06269 4.6667 3.12417 4.64886 3.17725 4.61533C3.87026 4.18272 4.62563 3.85918 5.41693 3.65604C5.47468 3.64246 5.52775 3.61371 5.57068 3.57276C5.61361 3.53182 5.64483 3.48016 5.66113 3.42312C5.67743 3.36609 5.67821 3.30573 5.66339 3.24829C5.64858 3.19084 5.6187 3.1384 5.57685 3.09635C5.49154 3.01073 5.36658 2.97792 5.25029 3.01073C4.39268 3.23106 3.57408 3.58204 2.82323 4.05135C2.76216 4.08985 2.71524 4.14713 2.68951 4.21458C2.66379 4.28203 2.66065 4.35601 2.68058 4.4254C2.7005 4.49478 2.74241 4.55583 2.8 4.59936C2.85759 4.64289 2.92772 4.66654 2.99991 4.66678ZM0.22531 7.98204C0.26673 7.99623 0.31054 8.00213 0.35424 7.99939C0.397939 7.99665 0.44067 7.98533 0.479992 7.96607C0.519314 7.94681 0.554457 7.92 0.583412 7.88715C0.612368 7.85431 0.634568 7.81608 0.648746 7.77466C0.977474 6.8182 1.52047 5.94954 2.23624 5.23502C2.29217 5.17122 2.32163 5.08848 2.31863 5.00369C2.31562 4.9189 2.28037 4.83845 2.22007 4.77877C2.15983 4.71902 2.07907 4.68451 1.99426 4.68226C1.90945 4.68002 1.82697 4.71022 1.76366 4.7667C0.976618 5.55222 0.379504 6.50722 0.0179281 7.55876C-0.010663 7.64239 -0.0048797 7.73395 0.034007 7.81332C0.0728936 7.89269 0.141702 7.95338 0.22531 7.98204ZM13.9999 7.33337C14.1152 7.33352 14.2223 7.27435 14.2833 7.17669C14.3443 7.07903 14.3506 6.95677 14.2999 6.85333C12.957 4.25205 10.2607 2.63155 7.33325 2.66682C7.24489 2.66684 7.16015 2.70196 7.09766 2.76444C7.03518 2.82692 7.00007 2.91166 7.00005 3.00003C7.00003 3.0438 7.00864 3.08714 7.02538 3.12759C7.04211 3.16804 7.06665 3.20479 7.09759 3.23575C7.12853 3.26671 7.16527 3.29128 7.2057 3.30805C7.24614 3.32481 7.28948 3.33345 7.33325 3.33346C10.0058 3.29823 12.4697 4.77389 13.7 7.14677C13.7275 7.20288 13.7701 7.25013 13.8232 7.28313C13.8762 7.31613 13.9375 7.33354 14 7.33337H13.9999Z" fill="#653CC2"/>
<path d="M12.6667 7.90662C12.7259 7.90653 12.784 7.89067 12.8351 7.86066C12.8862 7.83066 12.9283 7.78761 12.9572 7.73592C12.9861 7.6842 13.0007 7.62573 12.9994 7.56651C12.9982 7.50729 12.9813 7.44947 12.9503 7.39897C12.6562 6.92169 12.3033 6.48319 11.8999 6.09374C11.8686 6.06275 11.8314 6.03829 11.7905 6.02177C11.7497 6.00526 11.7059 5.99701 11.6618 5.99752C11.6178 5.99802 11.5742 6.00727 11.5337 6.02471C11.4932 6.04216 11.4566 6.06746 11.426 6.09916C11.3953 6.13086 11.3713 6.16832 11.3552 6.20937C11.3392 6.25042 11.3314 6.29425 11.3324 6.33833C11.3334 6.3824 11.3431 6.42584 11.361 6.46612C11.3789 6.50641 11.4046 6.54275 11.4367 6.57303C11.8005 6.9235 12.1188 7.31828 12.3842 7.74811C12.414 7.79636 12.4555 7.83624 12.5049 7.86397C12.5543 7.89171 12.61 7.90639 12.6667 7.90662ZM1.87127 8.09674C2.89377 5.93046 5.10888 4.58222 7.50266 4.66874C7.59063 4.66969 7.67553 4.63636 7.73935 4.57581C7.80318 4.51525 7.84093 4.43223 7.84461 4.34433C7.84578 4.30059 7.83832 4.25704 7.82266 4.21618C7.807 4.17532 7.78344 4.13795 7.75333 4.1062C7.72323 4.07444 7.68716 4.04893 7.64719 4.03112C7.60722 4.0133 7.56414 4.00354 7.52039 4.00238C4.86169 3.90945 2.40276 5.40784 1.26675 7.81338C0.918254 8.55042 0.716498 9.34822 0.672725 10.1623C0.66999 10.2726 0.666748 10.3863 0.666748 10.5C0.666748 11.2457 0.666748 11.6456 0.670732 11.6881C0.676645 11.7723 0.714349 11.8512 0.776215 11.9087C0.838082 11.9663 0.919492 11.9982 1.00397 11.9979H1.02136C1.20401 11.9888 1.34518 11.8341 1.33768 11.6513C1.33339 11.5617 1.33339 10.5549 1.33339 10.5C1.33339 10.3934 1.33663 10.287 1.33964 10.1921C1.37929 9.46578 1.55986 8.75413 1.87127 8.09678V8.09674ZM9.0107 4.87073C9.53662 5.02249 10.0302 5.26967 10.4667 5.59995C10.5017 5.62623 10.5415 5.64536 10.5839 5.65623C10.6263 5.6671 10.6705 5.66951 10.7138 5.66332C10.7571 5.65712 10.7988 5.64245 10.8365 5.62014C10.8742 5.59782 10.9071 5.56831 10.9333 5.53327C11.0438 5.38601 11.0139 5.17714 10.8666 5.06667C10.3635 4.68684 9.79478 4.40278 9.1889 4.22867L9.08668 4.19999C9.00179 4.17849 8.91185 4.19124 8.83628 4.23549C8.7607 4.27973 8.70557 4.35193 8.68277 4.43648C8.65996 4.52104 8.67137 4.61119 8.71453 4.68741C8.75768 4.76363 8.82911 4.81979 8.91336 4.84374L9.0107 4.87073Z" fill="#653CC2"/>
<path d="M7.68287 6.68842C6.7808 6.59375 5.87328 6.80759 5.10838 7.29506C4.60921 7.61283 4.18949 8.04076 3.88144 8.54599C3.60831 8.98982 3.43286 9.48674 3.36679 10.0037C3.34419 10.1682 3.33307 10.334 3.33351 10.5V14.8733C3.33389 15.4608 3.46705 16.0405 3.72304 16.5693C3.97902 17.098 4.35121 17.562 4.81178 17.9266C5.32842 18.3407 5.90248 18.7544 6.40846 19.1194C6.80853 19.4067 7.18373 19.6783 7.45916 19.8973C7.52842 19.9504 7.61579 19.9743 7.70246 19.9637C7.78913 19.953 7.86816 19.9088 7.92255 19.8405C7.97697 19.7722 8.00243 19.6853 7.99344 19.5985C7.98446 19.5116 7.94175 19.4318 7.87451 19.3761C7.58642 19.1467 7.20373 18.8707 6.79846 18.5783C6.29846 18.2184 5.7317 17.8117 5.22877 17.4063C4.84452 17.1019 4.53431 16.7143 4.32149 16.2727C4.10868 15.8311 3.99881 15.3469 4.00015 14.8567V10.5C4.00015 10.3636 4.00948 10.2272 4.02808 10.092C4.08199 9.66655 4.22598 9.25749 4.45046 8.89208C4.70567 8.47344 5.05347 8.11889 5.46713 7.85568C6.10496 7.44968 6.86145 7.27157 7.61341 7.35033C8.99985 7.49744 10.0037 8.70696 10.3498 9.76868C10.3796 9.8496 10.4396 9.91582 10.5172 9.95344C10.5948 9.99105 10.684 9.99713 10.766 9.9704C10.848 9.94362 10.9164 9.88614 10.9569 9.81C10.9974 9.73387 11.0068 9.64501 10.9832 9.56208C10.5594 8.26173 9.37442 6.86678 7.68287 6.68842ZM15.6668 8.00001H15.3334C12.9413 8.00279 11.0029 9.94126 11.0001 12.3334V19.6668C11.0001 19.8507 11.1493 20 11.3335 20C11.5175 20 11.6668 19.8508 11.6668 19.6668V12.3334C11.6692 10.3093 13.3093 8.66915 15.3334 8.66669H15.6668C17.6908 8.66915 19.3311 10.3093 19.3334 12.3334V19.6668C19.3334 19.8507 19.4826 20 19.6668 20C19.8507 20 20 19.8508 20 19.6668V12.3334C19.9973 9.94126 18.0588 8.00275 15.6668 8.00001Z" fill="#653CC2"/>
<path d="M17.8927 14.3741C18.0178 14.3425 18.1304 14.2736 18.2155 14.1766C18.3006 14.0795 18.3541 13.9589 18.369 13.8307L18.6629 11.2024C18.6746 11.0941 18.658 10.9846 18.6146 10.8847C18.5711 10.7847 18.5024 10.6979 18.4152 10.6326C16.6851 9.34464 14.3148 9.34464 12.5846 10.6326C12.4973 10.6979 12.4287 10.7848 12.3853 10.8848C12.3419 10.9848 12.3253 11.0943 12.3372 11.2027L12.631 13.8307C12.6458 13.9589 12.6994 14.0796 12.7846 14.1767C12.8697 14.2738 12.9824 14.3426 13.1077 14.374C14.6787 14.7642 16.3213 14.7642 17.8923 14.374L17.8927 14.3741ZM13.2909 13.7333L13.0024 11.1537C14.4881 10.0609 16.5119 10.0609 17.9977 11.1537L17.7089 13.7334C16.2576 14.088 14.7422 14.088 13.2909 13.7334V13.7333Z" fill="#653CC2"/>
<path d="M17.1584 12.6871C16.9406 12.4693 16.6821 12.2965 16.3976 12.1786C16.113 12.0607 15.8081 12 15.5001 12C15.1921 12 14.8871 12.0607 14.6025 12.1786C14.318 12.2965 14.0595 12.4693 13.8417 12.6871L13.7644 12.7644C13.7041 12.8274 13.6709 12.9115 13.6719 12.9986C13.6729 13.0857 13.7079 13.169 13.7695 13.2307C13.8311 13.2923 13.9144 13.3273 14.0016 13.3283C14.0887 13.3292 14.1728 13.296 14.2357 13.2358L14.3131 13.1584C14.6279 12.8436 15.0548 12.6667 15.5001 12.6666C15.9453 12.6667 16.3722 12.8436 16.687 13.1584L16.7644 13.2358C16.8952 13.3619 17.1031 13.3603 17.2316 13.2316C17.2934 13.1699 17.3285 13.0863 17.3292 12.9989C17.33 12.9115 17.2964 12.8273 17.2357 12.7644L17.1584 12.6871ZM16.6667 16.6667H14.3334C14.245 16.6667 14.1602 16.7018 14.0977 16.7643C14.0352 16.8268 14.0001 16.9116 14.0001 16.9999C14.0001 17.0437 14.0087 17.0871 14.0255 17.1275C14.0422 17.168 14.0667 17.2047 14.0977 17.2357C14.1286 17.2666 14.1654 17.2912 14.2058 17.3079C14.2463 17.3247 14.2896 17.3333 14.3334 17.3333H16.6667C16.7109 17.334 16.7548 17.3259 16.7959 17.3094C16.8369 17.293 16.8743 17.2685 16.9057 17.2375C16.9372 17.2065 16.9623 17.1695 16.9793 17.1288C16.9964 17.088 17.0052 17.0442 17.0052 17C17.0052 16.9558 16.9964 16.912 16.9793 16.8713C16.9623 16.8305 16.9372 16.7935 16.9057 16.7625C16.8743 16.7315 16.8369 16.707 16.7959 16.6906C16.7548 16.6741 16.7109 16.666 16.6667 16.6667ZM16.6667 18H14.3334C14.2896 18 14.2463 18.0086 14.2058 18.0254C14.1654 18.0421 14.1286 18.0667 14.0977 18.0977C14.0667 18.1286 14.0422 18.1654 14.0254 18.2058C14.0087 18.2463 14.0001 18.2896 14.0001 18.3334C14.0001 18.5174 14.1493 18.6666 14.3334 18.6666H16.6667C16.7105 18.6666 16.7539 18.658 16.7943 18.6413C16.8347 18.6245 16.8715 18.6 16.9024 18.569C16.9334 18.5381 16.9579 18.5013 16.9747 18.4609C16.9914 18.4204 17.0001 18.3771 17.0001 18.3333C17.0001 18.2896 16.9914 18.2462 16.9747 18.2058C16.9579 18.1653 16.9334 18.1286 16.9024 18.0976C16.8715 18.0667 16.8347 18.0421 16.7943 18.0254C16.7539 18.0086 16.7105 18 16.6667 18V18Z" fill="#653CC2"/>
</g>
<defs>
<clipPath id="clip0_198_1116">
<rect width="20" height="19.9999" fill="white"/>
</clipPath>
</defs>
</svg>
