<svg width="45" height="45" viewBox="0 0 45 45" fill="none" xmlns="http://www.w3.org/2000/svg">
<g opacity="0.45">
<path d="M30.1148 8.86148L35.1246 4.4782C35.4535 4.18916 35.6866 3.80683 35.7928 3.38208C35.8991 2.95732 35.8735 2.51028 35.7194 2.10043C35.5654 1.69058 35.2902 1.33736 34.9305 1.08775C34.5708 0.838137 34.1435 0.70398 33.7057 0.703125C32.6721 0.703125 31.6533 1.05258 30.8377 1.6868L25.5839 5.77266C25.4925 5.84367 25.4201 5.93648 25.373 6.04195L24.2972 8.46141C23.1631 11.0142 22.3447 13.6958 21.8602 16.4468C18.1772 18.7905 14.9638 21.8008 12.3848 25.323L8.5732 30.5212C8.50496 30.6145 8.46076 30.7232 8.44453 30.8377L7.11422 40.1463C6.49215 40.2881 5.93658 40.6368 5.53835 41.1353C5.14012 41.6338 4.92279 42.2526 4.92188 42.8906V43.5938C4.92188 43.7802 4.99595 43.9591 5.12782 44.0909C5.25968 44.2228 5.43852 44.2969 5.625 44.2969H11.25C11.4091 44.297 11.5635 44.2431 11.688 44.1442C11.8125 44.0452 11.8998 43.9069 11.9355 43.752L13.9936 34.8321L18.9527 30.4931L23.9534 35.4938L25.3223 43.7091C25.3496 43.8732 25.4343 44.0224 25.5612 44.1301C25.6882 44.2377 25.8492 44.2968 26.0156 44.2969H30.9375C31.124 44.2969 31.3028 44.2228 31.4347 44.0909C31.5665 43.9591 31.6406 43.7802 31.6406 43.5938V42.8906C31.6396 42.2673 31.432 41.6619 31.0504 41.169C30.6687 40.6762 30.1345 40.3237 29.5313 40.1667V35.1562C29.5314 35.072 29.5164 34.9884 29.487 34.9095L28.1714 31.4023C28.848 31.1742 29.4604 30.7878 29.9576 30.2754C30.4549 29.763 30.8226 29.1393 31.0303 28.4562L33.0159 22.0036C33.0455 21.9087 33.0539 21.8088 33.042 21.7097L32.6791 18.8058C33.5547 19.0423 34.4773 19.0432 35.3532 18.8082C36.2292 18.5732 37.0275 18.1107 37.6671 17.4677L38.5615 16.5734C39.0438 16.0937 39.4262 15.5231 39.6866 14.8947C39.9469 14.2663 40.08 13.5924 40.0781 12.9122C40.0781 10.0568 37.7557 7.73438 34.9003 7.73438C34.2201 7.73251 33.5462 7.8656 32.9178 8.12593C32.2894 8.38627 31.7188 8.76867 31.2391 9.25102L30.3448 10.1454C29.4368 11.051 28.9004 12.2633 28.8408 13.5443L28.2853 13.128L30.1148 8.86148ZM25.5825 9.03375L26.5866 6.77531L31.7011 2.79773C32.2745 2.35234 32.9797 2.11019 33.7057 2.10938C33.8578 2.10959 34.0061 2.15613 34.1311 2.2428C34.256 2.32946 34.3516 2.45214 34.405 2.59449C34.4585 2.73683 34.4673 2.89209 34.4303 3.03957C34.3933 3.18705 34.3122 3.31975 34.1979 3.42L29.0686 7.90805C28.9896 7.97725 28.9272 8.06326 28.8858 8.15977L27.6286 11.0939L24.8843 10.7508C25.1023 10.1735 25.3315 9.59906 25.5825 9.03375ZM6.32813 42.8906C6.32813 42.1151 6.95883 41.4844 7.73438 41.4844H11.0152L10.691 42.8906H6.32813ZM30.2344 42.8906H26.6112L26.377 41.4844H28.8281C29.6037 41.4844 30.2344 42.1151 30.2344 42.8906ZM28.125 35.2835V40.0781H26.1422L25.3027 35.0402C25.2787 34.8958 25.2101 34.7625 25.1065 34.6591L19.4815 29.0341C19.3553 28.908 19.1858 28.8345 19.0075 28.8286C18.8292 28.8228 18.6552 28.8849 18.521 29.0025L12.896 33.9244C12.7849 34.0215 12.7071 34.1511 12.6738 34.2949L11.34 40.0781H8.54508L9.81211 31.211L13.519 26.1555C14.3248 25.0617 15.1954 24.0171 16.1262 23.0273L22.5253 27.9499C22.2976 28.1458 22.1146 28.3884 21.9889 28.6613C21.8633 28.9341 21.7978 29.2308 21.7969 29.5312C21.7969 30.6942 22.7433 31.6406 23.9063 31.6406H26.7188C26.7321 31.6406 26.7441 31.6378 26.7574 31.6378L28.125 35.2835ZM29.6866 28.0427C29.4934 28.6786 29.1003 29.2353 28.5657 29.6301C28.031 30.0249 27.3834 30.2368 26.7188 30.2344H23.9063C23.5188 30.2344 23.2031 29.9187 23.2031 29.5312C23.2031 29.1438 23.5188 28.8281 23.9063 28.8281H26.0156C26.5754 28.8287 27.1156 28.6225 27.5327 28.2492C27.9498 27.8759 28.2143 27.3616 28.2755 26.8052L28.5975 23.9062H30.9586L29.6866 28.0427ZM25.5375 27.4219L26.9599 25.9158L26.8784 26.6498C26.855 26.8622 26.754 27.0585 26.5947 27.201C26.4355 27.3435 26.2293 27.4221 26.0156 27.4219H25.5375ZM38.6719 12.9122C38.6719 13.5689 38.4898 14.1919 38.1769 14.7487C38.0407 14.3394 37.9704 13.911 37.9688 13.4796V12.6562C37.9688 12.5448 37.9424 12.4348 37.8916 12.3356C37.8408 12.2363 37.7671 12.1506 37.6767 12.0854C37.5862 12.0202 37.4816 11.9775 37.3713 11.9607C37.2611 11.944 37.1485 11.9536 37.0427 11.989C36.5331 12.1609 35.9855 12.1865 35.462 12.063C34.9386 11.9394 34.4602 11.6717 34.0812 11.2901L32.6742 9.88313C33.3172 9.4028 34.0978 9.14244 34.9003 9.14062C35.9003 9.14174 36.8589 9.53946 37.566 10.2465C38.273 10.9536 38.6708 11.9122 38.6719 12.9122ZM31.339 11.1396L31.6406 10.838L33.087 12.2843C33.5371 12.7372 34.0828 13.0835 34.6842 13.298C35.2856 13.5125 35.9274 13.5897 36.5625 13.5239C36.5721 14.377 36.7809 15.2161 37.1721 15.9743L36.6729 16.4735C36.3235 16.8248 35.9078 17.1033 35.4501 17.293C34.9923 17.4826 34.5014 17.5795 34.0059 17.5781C33.006 17.577 32.0473 17.1793 31.3403 16.4722C30.6332 15.7652 30.2355 14.8065 30.2344 13.8066C30.2344 12.799 30.6267 11.8519 31.339 11.1396ZM29.1234 15.5145C29.5017 16.5909 30.2237 17.5131 31.178 18.1385L31.6273 21.7343L31.3917 22.5H28.7543L28.8239 21.8742L27.4268 21.7188L27.218 23.5941L23.8317 27.18L17.1162 22.0141C18.8644 20.2951 20.7949 18.7718 22.8734 17.4713C23.0442 17.3644 23.1616 17.1893 23.1947 16.9903C23.4762 15.3345 23.8841 13.7028 24.4146 12.1092L27.0527 12.439L26.7771 13.0816C26.715 13.2265 26.7034 13.388 26.744 13.5402C26.7847 13.6924 26.8754 13.8266 27.0014 13.9212L29.1234 15.5145Z" fill="black"/>
</g>
</svg>
