<svg width="28" height="25" viewBox="0 0 28 25" fill="none" xmlns="http://www.w3.org/2000/svg">
<path d="M12.2501 10.9375C11.9293 10.9375 11.6668 11.1719 11.6668 11.4584C11.6668 11.7448 11.9293 11.9792 12.2501 11.9792H13.4168V12.5C13.4168 12.7865 13.6793 13.0209 14.0001 13.0209C14.321 13.0209 14.5835 12.7865 14.5835 12.5V11.9792H15.1668C15.8085 11.9792 16.3335 11.5104 16.3335 10.9375V9.89585C16.3335 9.32294 15.8085 8.85419 15.1668 8.85419H12.8335V7.81252H15.7501C16.071 7.81252 16.3335 7.57815 16.3335 7.29169C16.3335 7.00523 16.071 6.77085 15.7501 6.77085H14.5835V6.25002C14.5835 5.96356 14.321 5.72919 14.0001 5.72919C13.6793 5.72919 13.4168 5.96356 13.4168 6.25002V6.77085H12.8335C12.1918 6.77085 11.6668 7.2396 11.6668 7.81252V8.85419C11.6668 9.4271 12.1918 9.89585 12.8335 9.89585H15.1668V10.9375H12.2501ZM10.5118 14.5834H10.506C10.1851 14.5834 9.92847 14.8177 9.92847 15.1042C9.92847 15.3906 10.191 15.625 10.5118 15.625C10.8326 15.625 11.0951 15.3906 11.0951 15.1042C11.0951 14.8177 10.8326 14.5834 10.5118 14.5834ZM18.0835 15.1042C18.0835 14.8177 17.821 14.5834 17.5001 14.5834H12.8335C12.5126 14.5834 12.2501 14.8177 12.2501 15.1042C12.2501 15.3906 12.5126 15.625 12.8335 15.625H17.5001C17.821 15.625 18.0835 15.3906 18.0835 15.1042ZM10.5118 17.1875H10.506C10.1851 17.1875 9.92847 17.4219 9.92847 17.7084C9.92847 17.9948 10.191 18.2292 10.5118 18.2292C10.8326 18.2292 11.0951 17.9948 11.0951 17.7084C11.0951 17.4219 10.8326 17.1875 10.5118 17.1875ZM12.8335 17.1875C12.5126 17.1875 12.2501 17.4219 12.2501 17.7084C12.2501 17.9948 12.5126 18.2292 12.8335 18.2292H14.7935C15.1143 18.2292 15.3768 17.9948 15.3768 17.7084C15.3768 17.4219 15.1143 17.1875 14.7935 17.1875H12.8335Z" fill="#8F8F8F"/>
<path d="M14.9509 20.6875L14.0001 21.25L12.5709 20.4011C12.3726 20.2865 12.1217 20.2865 11.9234 20.4011L10.4942 21.25L9.06508 20.4011C8.86675 20.2865 8.61592 20.2865 8.41758 20.4011L7.57175 20.9011V4.68752C7.57175 4.30731 7.44925 3.95315 7.24508 3.64585H19.2384C19.8801 3.64585 20.4051 4.1146 20.4051 4.68752V14.6146C20.4051 14.9011 20.6676 15.1354 20.9884 15.1354C21.3092 15.1354 21.5717 14.9011 21.5717 14.6146V4.68752C21.5717 3.53648 20.5276 2.60419 19.2384 2.60419H5.25008C3.96091 2.60419 2.91675 3.53648 2.91675 4.68752V16.1459C2.91675 16.7188 3.44175 17.1875 4.08341 17.1875H6.41675V21.875C6.41675 22.0677 6.53341 22.2448 6.72591 22.3334C6.91258 22.4219 7.14592 22.4115 7.32675 22.3073L8.75592 21.4584L10.1851 22.3073C10.3834 22.4219 10.6342 22.4219 10.8326 22.3073L12.2617 21.4584L13.6909 22.3073C13.7901 22.3646 13.9009 22.3959 14.0117 22.3959C14.1226 22.3959 14.2392 22.3646 14.3326 22.3073L15.6042 21.5521C15.6682 21.5141 15.7232 21.4653 15.766 21.4084C15.8088 21.3514 15.8387 21.2875 15.8538 21.2203C15.869 21.1531 15.8692 21.0839 15.8544 21.0166C15.8396 20.9493 15.8101 20.8853 15.7676 20.8281C15.7251 20.771 15.6704 20.722 15.6066 20.6837C15.5429 20.6455 15.4713 20.6188 15.396 20.6053C15.3207 20.5917 15.2432 20.5916 15.1678 20.6048C15.0924 20.618 15.0207 20.6443 14.9567 20.6823L14.9509 20.6875ZM4.08341 4.68752C4.08341 4.1146 4.60841 3.64585 5.25008 3.64585C5.89175 3.64585 6.41675 4.1146 6.41675 4.68752V16.1459H4.08341V4.68752Z" fill="#8F8F8F"/>
<path d="M21.5308 21.099C21.1867 21.2656 20.8133 21.3542 20.4167 21.3542C19.2208 21.3542 18.2467 20.5469 18.1125 19.5104L18.2583 19.6406C18.375 19.7448 18.5208 19.7917 18.6725 19.7917C18.8242 19.7917 18.97 19.7396 19.0867 19.6406C19.1408 19.5924 19.1837 19.5352 19.2129 19.4722C19.2422 19.4092 19.2573 19.3417 19.2573 19.2734C19.2573 19.2052 19.2422 19.1377 19.2129 19.0747C19.1837 19.0117 19.1408 18.9544 19.0867 18.9062L17.92 17.8646C17.866 17.8163 17.8019 17.778 17.7314 17.7519C17.6608 17.7257 17.5852 17.7123 17.5088 17.7123C17.4324 17.7123 17.3567 17.7257 17.2861 17.7519C17.2156 17.778 17.1515 17.8163 17.0975 17.8646L15.9308 18.9062C15.8768 18.9545 15.834 19.0117 15.8048 19.0747C15.7755 19.1377 15.7605 19.2052 15.7605 19.2734C15.7605 19.3416 15.7755 19.4092 15.8048 19.4722C15.834 19.5352 15.8768 19.5924 15.9308 19.6406C15.9848 19.6888 16.049 19.7271 16.1195 19.7532C16.1901 19.7793 16.2657 19.7927 16.3421 19.7927C16.4185 19.7927 16.4941 19.7793 16.5647 19.7532C16.6352 19.7271 16.6993 19.6888 16.7533 19.6406L16.9342 19.4792C17.0508 21.1042 18.5675 22.401 20.4225 22.401C21.0175 22.401 21.5833 22.2708 22.0967 22.0208C22.1637 21.9877 22.2228 21.943 22.2705 21.8895C22.3182 21.8359 22.3536 21.7745 22.3747 21.7087C22.3959 21.643 22.4023 21.5741 22.3936 21.5061C22.3849 21.4381 22.3613 21.3723 22.3242 21.3125C22.287 21.2527 22.237 21.1999 22.1771 21.1573C22.1171 21.1147 22.0483 21.0831 21.9746 21.0642C21.901 21.0454 21.8239 21.0397 21.7477 21.0474C21.6716 21.0551 21.5979 21.0762 21.5308 21.1094V21.099ZM24.9142 18.901C24.8602 18.8528 24.7961 18.8145 24.7255 18.7883C24.655 18.7622 24.5793 18.7487 24.5029 18.7487C24.4265 18.7487 24.3509 18.7622 24.2803 18.7883C24.2097 18.8145 24.1456 18.8528 24.0917 18.901L23.9108 19.0625C23.7942 17.4375 22.2775 16.1406 20.4225 16.1406C19.8275 16.1406 19.2617 16.2708 18.7483 16.5208C18.613 16.5878 18.513 16.7001 18.4703 16.8329C18.4276 16.9658 18.4458 17.1083 18.5208 17.2292C18.5959 17.35 18.7216 17.4393 18.8704 17.4774C19.0192 17.5155 19.1788 17.4993 19.3142 17.4323C19.6583 17.2656 20.0317 17.1771 20.4283 17.1771C21.6242 17.1771 22.5983 17.9844 22.7325 19.0208L22.5867 18.8906C22.5327 18.8424 22.4686 18.8042 22.398 18.7781C22.3274 18.752 22.2518 18.7385 22.1754 18.7385C22.0991 18.7385 22.0234 18.752 21.9529 18.7781C21.8823 18.8042 21.8182 18.8424 21.7642 18.8906C21.7102 18.9388 21.6673 18.9961 21.6381 19.0591C21.6089 19.1221 21.5938 19.1896 21.5938 19.2578C21.5938 19.326 21.6089 19.3935 21.6381 19.4565C21.6673 19.5195 21.7102 19.5768 21.7642 19.625L22.9308 20.6667C23.0475 20.7708 23.1933 20.8177 23.345 20.8177C23.4967 20.8177 23.6425 20.7656 23.7592 20.6667L24.9258 19.625C24.9799 19.5768 25.0228 19.5196 25.0521 19.4566C25.0814 19.3936 25.0964 19.326 25.0964 19.2578C25.0964 19.1896 25.0814 19.1221 25.0521 19.0591C25.0228 18.996 24.9799 18.9388 24.9258 18.8906L24.9142 18.901Z" fill="#8F8F8F"/>
</svg>
