<svg width="45" height="45" viewBox="0 0 45 45" fill="none" xmlns="http://www.w3.org/2000/svg">
<g opacity="0.45" clip-path="url(#clip0_46_570)">
<path d="M14.0625 13.3594C14.4508 13.3594 14.7656 13.0446 14.7656 12.6562C14.7656 12.2679 14.4508 11.9531 14.0625 11.9531C13.6742 11.9531 13.3594 12.2679 13.3594 12.6562C13.3594 13.0446 13.6742 13.3594 14.0625 13.3594Z" fill="black"/>
<path d="M19.6875 13.3594C20.0758 13.3594 20.3906 13.0446 20.3906 12.6562C20.3906 12.2679 20.0758 11.9531 19.6875 11.9531C19.2992 11.9531 18.9844 12.2679 18.9844 12.6562C18.9844 13.0446 19.2992 13.3594 19.6875 13.3594Z" fill="black"/>
<path d="M16.8749 18.9844C17.4285 18.9864 17.9716 18.8331 18.4425 18.5421C18.9134 18.251 19.2933 17.8338 19.5391 17.3377L19.6129 17.1894L18.355 16.5601L18.2812 16.7091C18.0133 17.2449 17.4747 17.5782 16.8749 17.5782C16.2752 17.5782 15.7366 17.2449 15.4687 16.7091L15.3949 16.5608L14.137 17.1901L14.2108 17.3384C14.4567 17.8343 14.8367 18.2513 15.3076 18.5423C15.7785 18.8332 16.3214 18.9864 16.8749 18.9844Z" fill="black"/>
<path d="M44.2969 18.2812C44.2969 16.1663 43.6648 14.1989 42.589 12.5459L43.6542 11.4806C43.8586 11.2773 44.0207 11.0355 44.131 10.7691C44.2413 10.5027 44.2977 10.2171 44.2969 9.92883C44.2969 8.71875 43.3125 7.73438 42.1024 7.73438C41.516 7.73438 40.9648 7.96289 40.5506 8.37703L39.4854 9.44227C38.3817 8.71989 37.1514 8.21248 35.8594 7.94672V6.32812C36.6349 6.32812 37.2656 5.69742 37.2656 4.92188V3.51562C37.2656 2.74008 36.6349 2.10938 35.8594 2.10938H31.6406C30.8651 2.10938 30.2344 2.74008 30.2344 3.51562V4.92188C30.2344 5.69742 30.8651 6.32812 31.6406 6.32812V7.94461C30.1065 8.25556 28.6628 8.90989 27.4177 9.85852C27.4177 9.81563 27.4219 9.77273 27.4219 9.72984C27.4219 4.75242 23.3726 0.703125 18.3952 0.703125H15.3548C10.3774 0.703125 6.32813 4.75242 6.32813 9.72984C6.32813 10.9202 6.48281 12.1043 6.77461 13.2574C6.48422 13.7069 6.32923 14.2305 6.32813 14.7656C6.32813 16.3167 7.58953 17.5781 9.14063 17.5781H9.88242C10.558 19.2406 11.6663 20.6919 13.0922 21.7814L12.1493 24.6094H4.92188C2.59524 24.6094 0.703127 26.5015 0.703127 28.8281C0.703127 30.7519 1.15172 32.6777 2.0011 34.4025L1.72758 34.8131C1.05863 35.8146 0.702084 36.9922 0.703127 38.1966C0.703127 41.5603 3.43969 44.2969 6.80344 44.2969H19.6875C20.1223 44.2955 20.546 44.1596 20.9005 43.9078C21.255 43.656 21.523 43.3007 21.6675 42.8906H44.2969V41.4844H32.0745C32.706 40.5038 33.0434 39.3629 33.0469 38.1966C33.0478 36.992 32.6913 35.8142 32.0224 34.8124L31.7489 34.4018C32.6008 32.6671 33.0448 30.7607 33.0469 28.8281L33.0455 28.8014C33.2803 28.8169 33.5152 28.8281 33.75 28.8281C39.5655 28.8281 44.2969 24.0968 44.2969 18.2812ZM41.5448 9.37125C41.6942 9.23078 41.8924 9.15399 42.0974 9.15714C42.3024 9.16028 42.4982 9.24312 42.6431 9.38811C42.7881 9.53309 42.871 9.72883 42.8741 9.93384C42.8773 10.1389 42.8005 10.337 42.66 10.4864L41.7354 11.411C41.3916 11.0124 41.0189 10.6397 40.6202 10.2959L41.5448 9.37125ZM31.6406 3.51562H35.8594L35.8601 4.92188H31.6406V3.51562ZM33.0469 6.32812H34.4531V7.77023C34.2197 7.75477 33.9877 7.73438 33.75 7.73438C33.5131 7.73438 33.2803 7.75477 33.0469 7.76953V6.32812ZM34.4531 11.9946C35.8783 12.1561 37.2066 12.7963 38.2208 13.8105C39.235 14.8247 39.8752 16.1529 40.0366 17.5781H34.4531V11.9946ZM40.0366 18.9844C39.6851 22.1435 37.0013 24.6094 33.75 24.6094C30.2611 24.6094 27.4219 21.7702 27.4219 18.2812C27.4219 15.03 29.8877 12.3462 33.0469 11.9946V18.9844H40.0366ZM29.3688 24.648C29.1896 24.6234 29.009 24.6105 28.8281 24.6094H27.1673C26.2697 23.6843 25.5798 22.5783 25.1437 21.3653C24.7075 20.1523 24.5352 18.8602 24.6382 17.5753C25.1604 17.5694 25.6705 17.4172 26.1105 17.1359C26.0543 17.5106 26.0156 17.891 26.0156 18.2812C26.0156 20.9201 27.3459 23.2516 29.3688 24.648ZM27.4219 41.4844H21.7969V40.7812C21.7969 39.6183 20.8505 38.6719 19.6875 38.6719H18.9844V31.6406H20.3906C20.3906 32.4162 21.0213 33.0469 21.7969 33.0469H24.6094C25.3849 33.0469 26.0156 32.4162 26.0156 31.6406H27.4219V41.4844ZM17.5866 31.5605C17.3527 31.6112 17.1143 31.638 16.875 31.6406C14.9365 31.6406 13.3594 30.0635 13.3594 28.125V25.4264L14.3121 22.5682C15.1045 22.9767 15.9778 23.2031 16.875 23.2031C17.7722 23.2031 18.6455 22.9767 19.4379 22.5682L20.3906 25.4264V28.125C20.3868 28.888 20.1334 29.6288 19.6692 30.2344H18.9844C18.6262 30.2353 18.2818 30.3731 18.022 30.6197C17.7621 30.8662 17.6063 31.2028 17.5866 31.5605ZM24.6094 13.7573V13.3594C25.3849 13.3594 26.0156 13.9901 26.0156 14.7656C26.0156 15.5412 25.3849 16.1719 24.6094 16.1719H24.3183C24.5074 15.3928 24.6094 14.5842 24.6094 13.7573ZM23.232 18.8655C23.3401 20.9464 24.0694 22.9471 25.3259 24.6094H21.6007L20.6578 21.7814C21.697 20.9857 22.5713 19.9953 23.232 18.8655ZM21.7969 31.6406V30.2344H24.6094V31.6406H21.7969ZM24.6094 28.8281H21.7969C21.7779 28.8281 21.7596 28.833 21.7406 28.8337C21.7744 28.6003 21.7969 28.3641 21.7969 28.125V26.0156H24.6094V28.8281ZM15.3548 2.10938H18.3952C22.597 2.10938 26.0156 5.52797 26.0156 9.72984C26.0156 10.5638 25.9313 11.3948 25.7723 12.2119C25.4078 12.0429 25.0111 11.9546 24.6094 11.9531H24.113C23.8369 11.7937 23.6075 11.5646 23.4478 11.2887C23.2882 11.0128 23.2038 10.6997 23.2031 10.3809V10.0146C23.202 9.03724 22.8133 8.10021 22.1221 7.4091C21.431 6.718 20.494 6.32924 19.5166 6.32812C18.5323 6.32812 17.6063 6.71133 16.9102 7.40813L16.875 7.44328L16.8398 7.40813C16.4984 7.06466 16.0922 6.79235 15.6448 6.60697C15.1974 6.42158 14.7177 6.3268 14.2334 6.32812C13.256 6.32924 12.319 6.718 11.6279 7.4091C10.9367 8.10021 10.548 9.03724 10.5469 10.0146V10.3809C10.5461 10.6997 10.4616 11.0127 10.302 11.2886C10.1423 11.5645 9.91302 11.7936 9.63703 11.9531H9.14063C8.72508 11.9531 8.33344 12.0495 7.97766 12.2119C7.81724 11.3942 7.73577 10.5631 7.73438 9.72984C7.73438 5.52797 11.153 2.10938 15.3548 2.10938ZM9.14063 16.1719C8.36508 16.1719 7.73438 15.5412 7.73438 14.7656C7.73438 13.9901 8.36508 13.3594 9.14063 13.3594V13.7573C9.14063 14.5842 9.24258 15.3928 9.43172 16.1719H9.14063ZM10.5469 13.7573V13.0563C10.982 12.7592 11.3377 12.3599 11.5828 11.8936C11.8279 11.4272 11.9551 10.9078 11.9531 10.3809V10.0146C11.9539 9.41008 12.1943 8.83053 12.6218 8.40306C13.0493 7.9756 13.6288 7.73512 14.2334 7.73438C14.8423 7.73438 15.4146 7.97133 15.8456 8.40234L16.875 9.43172L17.9044 8.40234C18.1157 8.19004 18.367 8.0217 18.6437 7.90705C18.9204 7.7924 19.2171 7.73371 19.5166 7.73438C20.1212 7.73512 20.7007 7.9756 21.1282 8.40306C21.5557 8.83053 21.7961 9.41008 21.7969 10.0146V10.3809C21.7969 11.4666 22.3256 12.4559 23.2031 13.0563V13.7573C23.2031 16.7864 21.6696 19.5532 19.1011 21.1584C17.7659 21.9937 15.9855 21.9937 14.6489 21.1584C13.3904 20.3774 12.3527 19.2873 11.6347 17.9917C10.9167 16.6962 10.5422 15.2385 10.5469 13.7573ZM11.9531 26.0156V28.125C11.9531 30.8391 14.1609 33.0469 16.875 33.0469C17.112 33.0469 17.3461 33.0209 17.5781 32.9878V37.3233C17.4362 37.2865 17.2902 37.2672 17.1436 37.2656C16.8595 37.2656 16.5748 37.3331 16.3202 37.4597L13.8966 38.6719H9.14063V26.0156H11.9531ZM20.3906 42.1875C20.3906 42.5749 20.0749 42.8906 19.6875 42.8906H6.80344C5.55895 42.8891 4.36587 42.3941 3.48588 41.5141C2.6059 40.6341 2.11087 39.441 2.10938 38.1966C2.10938 37.267 2.38219 36.3663 2.89758 35.5929L3.62391 34.5037L3.29344 33.8414C2.5165 32.2843 2.1112 30.5683 2.10938 28.8281C2.10938 27.277 3.37078 26.0156 4.92188 26.0156H7.73438V38.6719H6.32813V40.0781H14.2284L16.9495 38.7176C17.2245 38.5791 17.5781 38.8005 17.5781 39.1064V40.0781H19.6875C20.0749 40.0781 20.3906 40.3938 20.3906 40.7812V42.1875ZM28.8281 41.4844V31.6406C28.8281 30.8651 28.1974 30.2344 27.4219 30.2344H26.0156V26.0156H28.8281C30.3792 26.0156 31.6406 27.277 31.6406 28.8281C31.6406 30.5599 31.2314 32.2938 30.4566 33.8421L30.1261 34.5037L30.8524 35.5929C31.367 36.3637 31.6413 37.2698 31.6406 38.1966C31.6372 39.4273 31.1515 40.6076 30.2878 41.4844H28.8281ZM31.6765 25.7252C32.3374 25.9095 33.0307 26.0156 33.75 26.0156C38.0145 26.0156 41.4844 22.5457 41.4844 18.2812C41.4844 14.0168 38.0145 10.5469 33.75 10.5469C31.0627 10.5469 28.6931 11.9264 27.3066 14.0126C27.2343 13.7458 27.1227 13.4913 26.9754 13.2574C27.0921 12.7948 27.1884 12.3279 27.2588 11.8568C28.9884 10.1074 31.282 9.14062 33.75 9.14062C38.79 9.14062 42.8906 13.2413 42.8906 18.2812C42.8906 23.3213 38.79 27.4219 33.75 27.4219C33.4259 27.4219 33.1017 27.3987 32.7797 27.3649C32.5467 26.7389 32.1686 26.177 31.6765 25.7252Z" fill="black"/>
</g>
<defs>
<clipPath id="clip0_46_570">
<rect width="45" height="45" fill="white"/>
</clipPath>
</defs>
</svg>
