<svg width="18" height="20" viewBox="0 0 18 20" fill="none" xmlns="http://www.w3.org/2000/svg">
<path d="M8.57485 0.809452C7.45133 0.808052 6.35662 1.16495 5.44982 1.82829C4.54301 2.49163 3.87135 3.42684 3.53243 4.49803C3.19351 5.56922 3.205 6.72058 3.56522 7.78479C3.92544 8.84901 4.61563 9.77064 5.53549 10.4158C3.94369 11.0519 2.57865 12.1498 1.61603 13.5682C0.653402 14.9866 0.137224 16.6606 0.133911 18.3748C0.146958 18.5869 0.240407 18.786 0.395204 18.9316C0.550002 19.0772 0.754491 19.1582 0.966982 19.1582C1.17947 19.1582 1.38396 19.0772 1.53876 18.9316C1.69356 18.786 1.78701 18.5869 1.80005 18.3748C1.79726 17.1437 2.12402 15.9343 2.74641 14.8721C3.3688 13.8099 4.26413 12.9336 5.33948 12.3342C6.41483 11.7349 7.631 11.4342 8.86176 11.4635C10.0925 11.4928 11.293 11.8509 12.3386 12.5008C12.4321 12.5587 12.5361 12.5976 12.6446 12.6153C12.7531 12.6331 12.8641 12.6293 12.9711 12.6041C13.0782 12.5789 13.1792 12.533 13.2685 12.4688C13.3577 12.4046 13.4335 12.3234 13.4914 12.2299C13.5493 12.1364 13.5882 12.0325 13.6059 11.924C13.6237 11.8154 13.6199 11.7045 13.5947 11.5974C13.5695 11.4904 13.5236 11.3894 13.4594 11.3001C13.3952 11.2108 13.314 11.1351 13.2205 11.0772C12.7365 10.7859 12.2248 10.5432 11.693 10.3528C13.0064 9.39213 13.8662 7.84567 13.8662 6.10079C13.8662 3.1937 11.4819 0.809452 8.57485 0.809452ZM8.57485 2.47874C10.5812 2.47874 12.1969 4.09449 12.1969 6.10079C12.1969 8.10709 10.5812 9.71969 8.57485 9.71969C6.56856 9.71969 4.95596 8.11339 4.95596 6.10079C4.95596 4.09449 6.56541 2.47874 8.57485 2.47874ZM17.0063 12.4819C16.871 12.4857 16.7387 12.5224 16.6207 12.5888C16.5027 12.6552 16.4027 12.7493 16.3292 12.863L13.4567 17.1685L11.6552 15.9622C11.564 15.8949 11.46 15.8468 11.3497 15.8208C11.2394 15.7948 11.1249 15.7914 11.0132 15.811C10.9016 15.8305 10.795 15.8725 10.7001 15.9344C10.6051 15.9963 10.5237 16.0769 10.4608 16.1712C10.3978 16.2654 10.3547 16.3715 10.3339 16.483C10.3132 16.5944 10.3153 16.7089 10.3401 16.8195C10.3649 16.9302 10.4119 17.0346 10.4782 17.1265C10.5446 17.2184 10.6289 17.2959 10.726 17.3543L13.23 19.0205C13.4142 19.1426 13.6394 19.1867 13.8561 19.143C14.0728 19.0993 14.2634 18.9714 14.3859 18.7874L17.7213 13.7858C17.8079 13.6586 17.8576 13.51 17.865 13.3563C17.8724 13.2026 17.8372 13.0498 17.7632 12.9149C17.6892 12.78 17.5794 12.6681 17.4458 12.5917C17.3122 12.5153 17.1602 12.4773 17.0063 12.4819Z" fill="#653CC2"/>
</svg>
