<svg width="91" height="39" viewBox="0 0 91 39" fill="none" xmlns="http://www.w3.org/2000/svg">
<rect x="42.75" y="33" width="6" height="6" rx="3" fill="#653CC2"/>
<path d="M42.75 17.25C42.3358 17.25 42 17.5858 42 18C42 18.4142 42.3358 18.75 42.75 18.75H48.75C49.1642 18.75 49.5 18.4142 49.5 18C49.5 17.5858 49.1642 17.25 48.75 17.25H42.75Z" fill="#653CC2"/>
<path fill-rule="evenodd" clip-rule="evenodd" d="M45.75 1.25C45.0419 1.25 44.3985 1.45282 43.7006 1.79224C43.0258 2.12035 42.2464 2.60409 41.2729 3.20832L39.2063 4.4909C38.2851 5.06261 37.5474 5.5204 36.9789 5.95581C36.3901 6.40669 35.9379 6.86589 35.6113 7.46263C35.2854 8.05812 35.1386 8.69174 35.0682 9.4407C35 10.1665 35 11.0541 35 12.1672V13.7799C35 15.6837 35 17.1866 35.1527 18.3616C35.3094 19.567 35.6386 20.5401 36.3824 21.3094C37.1296 22.0824 38.0805 22.4277 39.2576 22.5914C40.3985 22.75 41.8556 22.75 43.6918 22.75H47.8081C49.6444 22.75 51.1015 22.75 52.2424 22.5914C53.4195 22.4277 54.3704 22.0824 55.1176 21.3094C55.8614 20.5401 56.1906 19.567 56.3473 18.3616C56.5 17.1866 56.5 15.6838 56.5 13.7799V12.1672C56.5 11.0541 56.5 10.1665 56.4318 9.4407C56.3614 8.69174 56.2146 8.05812 55.8887 7.46263C55.5621 6.86589 55.1099 6.40669 54.5211 5.95581C53.9526 5.5204 53.2149 5.06262 52.2937 4.49091L50.2271 3.20831C49.2536 2.60409 48.4741 2.12034 47.7994 1.79224C47.1015 1.45282 46.4581 1.25 45.75 1.25ZM42.0295 4.50412C43.0453 3.87371 43.7595 3.43153 44.3565 3.1412C44.9382 2.85833 45.3502 2.75 45.75 2.75C46.1498 2.75 46.5618 2.85833 47.1435 3.14119C47.7405 3.43153 48.4547 3.87371 49.4705 4.50412L51.4705 5.74537C52.4313 6.34169 53.1059 6.76135 53.6091 7.1467C54.0987 7.52164 54.3803 7.83106 54.5729 8.18285C54.7662 8.53589 54.879 8.94865 54.9384 9.58104C54.9992 10.2286 55 11.0458 55 12.2039V13.725C55 15.6959 54.9985 17.1012 54.8598 18.1683C54.7236 19.2163 54.467 19.8244 54.0392 20.2669C53.6149 20.7058 53.0371 20.9664 52.0358 21.1057C51.0102 21.2483 49.6575 21.25 47.75 21.25H43.75C41.8425 21.25 40.4898 21.2483 39.4642 21.1057C38.4629 20.9664 37.8851 20.7058 37.4608 20.2669C37.033 19.8244 36.7764 19.2163 36.6402 18.1683C36.5015 17.1012 36.5 15.6959 36.5 13.725V12.2039C36.5 11.0458 36.5008 10.2286 36.5616 9.58104C36.621 8.94865 36.7338 8.53589 36.9271 8.18285C37.1197 7.83106 37.4013 7.52164 37.8909 7.1467C38.3941 6.76135 39.0687 6.34169 40.0295 5.74537L42.0295 4.50412Z" fill="#653CC2"/>
</svg>
