<svg width="35" height="39" viewBox="0 0 35 39" fill="none" xmlns="http://www.w3.org/2000/svg">
<path d="M14.8644 0.315796C14.6962 0.316468 14.5297 0.350274 14.3745 0.415284C14.2193 0.480294 14.0784 0.575235 13.9599 0.694686C13.8414 0.814137 13.7476 0.955759 13.6839 1.11147C13.6201 1.26717 13.5876 1.43391 13.5883 1.60217C13.5883 3.75211 12.8413 5.01286 11.8765 6.62467C11.3487 7.50617 10.503 8.96551 10.1417 10.0853C9.76247 9.3217 9.54466 8.75667 9.20769 7.53308C9.14608 7.30375 9.02196 7.09606 8.84917 6.93318C8.67638 6.7703 8.46173 6.65864 8.22917 6.61067C7.99661 6.5627 7.7553 6.58029 7.53216 6.6615C7.30902 6.7427 7.11284 6.88432 6.96551 7.07054C2.15826 13.0578 0.74632 17.5473 0.847539 22.0881C1.04998 31.2349 8.31979 38.7174 17.5038 38.7174C26.6878 38.7174 34.1575 31.2452 34.1575 22.0612C34.1575 19.7024 33.6117 16.6389 32.4829 13.7587C31.3541 10.8784 29.6526 8.14295 27.0453 6.74895C26.8733 6.65778 26.6828 6.607 26.4882 6.60046C26.2937 6.59392 26.1002 6.63179 25.9225 6.7112C25.7447 6.79062 25.5875 6.90948 25.4625 7.05877C25.3376 7.20806 25.2484 7.38385 25.2015 7.57279C24.9504 8.60164 24.8582 8.91811 24.5583 9.78936C24.1906 8.12117 23.6013 6.52217 22.639 4.97954C21.0259 2.38886 18.3661 0.315796 14.8644 0.315796ZM16.0585 2.99873C17.9151 3.36645 19.3347 4.51958 20.4648 6.33254C21.7614 8.41329 22.4212 11.1872 22.4212 13.4063C22.4215 13.6495 22.491 13.8877 22.6216 14.0928C22.7523 14.298 22.9386 14.4618 23.1588 14.565C23.3791 14.6682 23.6241 14.7066 23.8654 14.6756C24.1066 14.6447 24.3341 14.5457 24.5212 14.3903C25.8614 13.2833 26.7134 11.528 27.1759 10.0033C28.3816 11.1039 29.29 12.6465 30.0908 14.6927C31.0914 17.2488 31.595 20.1149 31.595 22.0599C31.595 29.8589 25.3028 36.1536 17.5038 36.1536C9.70482 36.1536 3.57276 29.864 3.39979 22.033C3.32163 18.498 4.1916 15.1975 7.53438 10.562C8.09813 11.8355 8.87969 13.0706 9.86882 14.0598C10.6414 14.8349 11.9701 14.3455 12.0559 13.2539C12.2391 10.9502 13.1001 9.57283 14.0777 7.93923C14.7901 6.74895 15.7357 5.2012 16.0585 2.99873ZM13.2206 17.2552C12.9681 17.2553 12.7181 17.3051 12.4849 17.4018C12.2517 17.4985 12.0398 17.6402 11.8613 17.8187C11.6829 17.9973 11.5413 18.2093 11.4448 18.4426C11.3483 18.6759 11.2986 18.9259 11.2987 19.1784C11.2988 19.4308 11.3486 19.6808 11.4453 19.914C11.542 20.1472 11.6837 20.3591 11.8622 20.5376C12.0408 20.7161 12.2528 20.8576 12.4861 20.9541C12.7194 21.0507 12.9694 21.1003 13.2218 21.1002C13.7317 21.1001 14.2207 20.8973 14.5811 20.5367C14.9415 20.176 15.1439 19.687 15.1437 19.1771C15.1436 18.6672 14.9408 18.1783 14.5802 17.8178C14.2195 17.4574 13.7305 17.255 13.2206 17.2552ZM22.3123 17.268C21.9853 17.3007 21.6812 17.451 21.4564 17.6908L11.6216 28.8992C11.5093 29.0255 11.4232 29.1727 11.3681 29.3324C11.313 29.4921 11.29 29.6612 11.3005 29.8298C11.311 29.9984 11.3547 30.1633 11.4292 30.3149C11.5036 30.4666 11.6073 30.602 11.7343 30.7134C11.9903 30.9365 12.3243 31.0488 12.663 31.0257C13.0018 31.0027 13.3175 30.8461 13.5409 30.5904L23.386 19.3821C23.6082 19.1262 23.7201 18.7928 23.697 18.4547C23.674 18.1166 23.5179 17.8014 23.263 17.5781C23.1387 17.4573 22.9884 17.3666 22.8236 17.3129C22.6588 17.2591 22.4839 17.2438 22.3123 17.268ZM21.7793 27.1849C21.5268 27.185 21.2769 27.2348 21.0436 27.3315C20.8104 27.4282 20.5985 27.5698 20.4201 27.7484C20.2416 27.927 20.1001 28.139 20.0035 28.3723C19.907 28.6056 19.8574 28.8556 19.8574 29.108C19.8575 29.3605 19.9073 29.6105 20.004 29.8437C20.1007 30.0769 20.2424 30.2888 20.421 30.4673C20.5996 30.6457 20.8116 30.7873 21.0448 30.8838C21.2781 30.9804 21.5281 31.03 21.7806 31.0299C22.2905 31.0297 22.7794 30.827 23.1398 30.4664C23.5003 30.1057 23.7026 29.6166 23.7025 29.1068C23.7023 28.5969 23.4996 28.1079 23.1389 27.7475C22.7783 27.3871 22.2892 27.1847 21.7793 27.1849Z" fill="black"/>
</svg>
